<?xml version="1.0" encoding="utf-8"?>
<!-- Generator: Adobe Illustrator 23.0.2, SVG Export Plug-In . SVG Version: 6.00 Build 0)  -->
<svg version="1.1" id="レイヤー_1" xmlns="http://www.w3.org/2000/svg" xmlns:xlink="http://www.w3.org/1999/xlink" x="0px"
	 y="0px" viewBox="0 0 251 181" style="enable-background:new 0 0 251 181;" xml:space="preserve">
<style type="text/css">
	.st0{fill:#006D80;}
</style>
<g>
	<g>
		<path d="M54.6,152.6c0-0.8-2.5-3-3.3-3c-0.5,0-0.9,0.5-1.4,1.1c-0.5,0.5-0.6,0.8-1,0.8c-0.6,0-0.6-0.5-0.6-1.5
			c0-7.4,0-8.2,0.5-8.6c0.2-0.2,0.8-0.6,1.1-0.8c0.2-0.1,0.3-0.4,0.3-0.6c0-1-3.3-2.8-3.8-2.8c-0.4,0-1.7,1.2-2,1.4
			c-0.6,0.3-1.2,0.3-1.8,0.3H26.8c-0.9,0-1.8,0-2.8-0.6c-1.8-1.1-2-1.2-2.6-1.2c-0.8,0-0.9,0.5-0.9,0.9c0,0.3,0.2,2.6,0.2,3
			c0.1,2,0.2,2.7,0.2,8.1c0,2.5,0,3-1.6,3c-1.2,0-6.5-0.4-7.5-0.4c-0.1,0-0.2,0-0.2,0.1c0,0.1,0,0.1,0.2,0.4l1.1,1.2
			c0.2,0.2,0.3,0.3,0.5,0.3c0.2,0,1-0.1,1.2-0.1c2-0.2,5.8-0.2,7.2-0.2h29.8C53.5,153.3,54.6,153.3,54.6,152.6z M29,151.4
			c-0.1,0.3-0.5,0.6-1.3,0.6h-1.5c-0.6,0-1.2-0.3-1.3-0.6c-0.1-0.3-0.2-4.7-0.2-5.4c0-0.6,0-5.1,0.2-5.4c0.1-0.1,0.3-0.6,1.3-0.6
			h1.5c0.6,0,1.1,0.2,1.3,0.6c0.1,0.3,0.1,4.7,0.1,5.4C29.1,146.6,29.1,151.1,29,151.4z M36.6,151.3c-0.2,0.7-1.2,0.7-1.6,0.7
			c-1.1,0-1.9,0-2.2-0.7c-0.2-0.5-0.2-3.8-0.2-4.5c0-0.9,0-5.4,0.2-5.9c0.2-0.8,1-0.8,2.2-0.8c1.8,0,1.8,0.1,1.8,4.8
			C36.7,145.8,36.7,150.9,36.6,151.3z M44.6,151.4c-0.2,0.4-0.7,0.6-1.3,0.6h-1.4c-0.9,0-1.2-0.3-1.3-0.6c-0.1-0.3-0.1-4.8-0.1-5.4
			c0-0.6,0-5.1,0.1-5.4c0.2-0.5,0.7-0.6,1.3-0.6h1.4c1,0,1.2,0.5,1.3,0.6c0.1,0.3,0.1,4.8,0.1,5.4C44.7,146.7,44.7,151.1,44.6,151.4
			z"/>
		<path d="M47.4,122.3c0-0.5-2.9-2.6-4.1-2.6c-0.6,0-0.9,0.3-1.6,1.1c-1,1.1-2,1.1-2.8,1.1h-7.6c-1,0-1.8,0-3.2-0.7
			c-1.5-0.8-2.5-1.2-3.2-1.2c-0.3,0-0.5,0.2-0.5,0.6c0,0.5,0.3,2.8,0.4,3.3c0.1,1.6,0.1,2.3,0.1,8.9c0,0.8,0,2.1,1.5,2.1
			c2.1,0,2.3-0.7,2.5-1.5c0,0,0,0,0,0v-3.7c-0.1-0.6-0.1-1.5-0.1-2.7c0-3.4,0-3.7,1.8-3.7h9.2c1.8,0,1.8,0.4,1.8,4.1
			c0,3.4,0,3.7-1.8,3.7h-7.7c0,0,0,0,0,0h-0.9c-0.2,0-0.4,0.2-0.4,0.4v0.7c0,0.2,0.2,0.4,0.4,0.4h0.2v0h8c0.8,0,1.3,0,1.6,0.9
			c0.3,0.9,0.5,1.7,2.3,1.7c2.4,0,2.4-1.8,2.4-2.4c0-0.2-0.3-5.4-0.3-6.3c0-2,0.2-2.5,0.6-2.8C47.1,123,47.4,122.7,47.4,122.3z"/>
		<path d="M17.7,122.2c0.6,0,3.4-2,5.4-4.3c1.4-1.5,1.6-1.8,3.3-1.8h21.1c2.7,0,3,0,3-0.6c0-0.9-4-4.1-4.8-4.1
			c-0.6,0-2.1,2.5-2.4,2.9c-0.3,0.4-0.7,0.5-2.9,0.5h-13c-0.4,0-1.1,0-1.1-0.7c0-0.6,0.9-1.6,1.4-1.9c0.9-0.4,0.9-0.4,0.9-0.8
			c0-0.8-0.7-1.2-1-1.3c-1.1-0.5-3.7-1.1-4-1.1c-0.3,0-0.6,0.1-0.6,0.4c0,0.2,0.1,0.7,0.1,0.8c0,2.2-2.6,7.2-4.1,9.7
			c-0.2,0.4-1.5,2.1-1.5,2.2C17.6,122.1,17.6,122.2,17.7,122.2z"/>
		<path d="M20,140.5c0-0.1-0.2-0.1-0.2-0.1c-0.5,0-5.5,1.5-6.1,1.5c-1.1,0-1.1-0.9-1.1-2.1c0-1,0-12,0.1-12.3c0.2-0.8,1-1,1.7-1h3.9
			c2.4,0,2.7,0,2.7-0.6c0-0.8-3.3-3.4-4.2-3.4c-0.5,0-0.7,0.2-2.2,1.8c-0.3,0.3-0.6,0.5-1,0.5c-1,0-1-0.9-1-1.4c0-8.7,0.2-8.7,1-9.2
			c1.1-0.6,1.2-0.7,1.2-1.1c0-1.2-4.8-2.5-6.4-2.5c-0.2,0-0.5,0.1-0.5,0.3c0,0.3,0.3,1.6,0.4,1.9c0.2,0.9,0.2,1.6,0.2,7.7
			c0,4.1,0,4.5-1.5,4.5c-1,0-5.5-0.3-6.4-0.3c-0.1,0-0.2,0-0.2,0.1c0,0.1,0,0.1,0.2,0.4l1.1,1.2c0.2,0.2,0.3,0.3,0.5,0.3
			c0.5,0,4.1-0.2,4.8-0.2c1.5,0,1.5,1.1,1.5,2.3c0,11.7,0,13-0.1,13.4c-0.1,0.9-0.1,1.4-5.4,2.2c-0.3,0.1-1.6,0.1-1.8,0.1
			c-0.3,0.1-0.4,0.3-0.4,0.5c0,0.1,1.7,4.5,3.2,4.5c0.5,0,0.7-0.2,1.3-0.9c0.5-0.6,0.9-1.2,3.5-2.2C16.5,143.4,20,140.5,20,140.5z"
			/>
		<path d="M113.5,149.8c0-0.6-0.3-3.1-0.3-3.6c-0.2-2.9-0.1-8.4-0.1-9.7v-10.2c0-1.2-0.2-7.1-0.2-7.3c0-1.7,0.2-2.4,0.6-3
			c0.2-0.3,1.2-1.3,1.2-1.6c0-1.1-3.1-2.9-4-2.9c-0.6,0-0.9,0.4-1.8,1.4c-0.6,0.7-0.9,0.7-3.5,0.7H77.1c-1.4,0-1.9-0.1-2.8-0.5
			c-2-0.7-3.6-1.2-4.5-1.2c-0.3,0-0.3,0.3-0.3,0.4c0,0.4,0.5,2,0.6,2.4c0.3,2,0.3,9.4,0.3,12.1c0,6.4-0.1,14.4-0.4,20.4
			c-0.1,0.8-0.3,4.1-0.3,4.8c0,1.2,0.1,2.4,1.8,2.4c2.8,0,2.9-2.2,3-3.6c0.1-1.1,0.8-1.1,1.5-1.1h31.8c0.6,0,1.3,0,1.3,0.9
			c0,1,0,1.7,1.6,1.7C110.9,152.5,113.5,152.4,113.5,149.8z M93.9,116.4c0.1-1,0.4-1.3,1.7-1.3h11.5c1.6,0,1.7,0.9,1.7,1.7
			c0,0.3,0.2,10.5,0.2,11.8c0,0.8-0.1,1.6-1.5,1.6H95.4c-1.1,0-1.6-0.3-1.6-1.5C93.7,125.7,93.8,119.1,93.9,116.4z M89.6,128.1
			c0,1.2,0.1,2-1.6,2H76.9v0h-0.1c-0.2,0-0.4,0.2-0.4,0.4v0.6c0,0.2,0.2,0.4,0.4,0.4h0.9c0,0,0,0,0,0H88c0.4,0,1.5,0.1,1.6,1v14.4
			c0,1.6-0.8,1.6-1.8,1.6H75.9c-0.7,0-1.4,0-1.6-1.4c-0.1-0.5,0.1-28,0.1-29.6c0-1.8,0-2.3,1.9-2.3h11.7c1.6,0,1.8,0.6,1.8,1.7
			C89.7,118.6,89.6,126.5,89.6,128.1z M107.4,148.4h-12c-1.2,0-2-0.1-2-1.8c0-0.8,0.2-14,0.3-14.3c0.2-0.9,1.2-0.9,1.6-0.9h12.1
			c0.5,0,1.1,0.1,1.4,0.7c0.2,0.4,0.2,9.3,0.2,10.6C109.1,148.3,109,148.4,107.4,148.4z"/>
		<path d="M244.8,136.8c-0.6,0-2.2,2.6-2.7,2.9c-0.5,0.4-0.8,0.4-3.1,0.4h-34.3c-2.7,0-5-0.1-7.8-0.2c-0.3-0.1-2.1-0.2-2.5-0.2
			c-0.1,0-0.2,0.1-0.2,0.2c0,0.1,0.1,0.2,0.2,0.3l1.1,1.2c0.2,0.2,0.3,0.4,0.5,0.4c0.2,0,1-0.1,1.2-0.2c1.2-0.1,4.1-0.1,5.7-0.1
			h44.5c1.9,0,3.1,0,3.1-0.7C250.5,140,245.2,136.8,244.8,136.8z"/>
		<path d="M206.5,121.8c0,2.3-0.5,12.3-0.5,14.3c0,0.9,0.2,1.7,1.4,1.7c1.1,0,2.3-0.8,2.5-1.5c0.3-1.1,0.5-1.4,1.9-1.4h21.1
			c0.8,0,1.6,0.2,1.7,1.4c0.1,0.7,0.1,1.3,1.5,1.3c0.3,0,2.9,0,2.9-3.4c0-0.6-0.2-3.3-0.2-3.9c-0.1-2.7-0.1-9.6-0.1-12.7
			c0-2.4,0.4-2.7,1-3.2c0.5-0.3,1-0.8,1-1.3c0-0.9-4.5-2.8-4.8-2.8c-0.4,0-0.5,0.1-1.1,1c-0.6,0.9-1.6,0.9-2.5,0.9h-18.5
			c-1,0-2.1,0-3.9-0.7c-0.7-0.3-3.6-1.7-4.2-1.7c-0.1,0-0.2,0.1-0.2,0.2c0,0.4,0.5,2.3,0.5,2.7C206.5,115.5,206.5,121.2,206.5,121.8
			z M210.2,115.8c0-1.3,0-2.2,1.6-2.2h21.1c1.7,0,1.7,0.6,1.7,3.5c0,1.3,0,2.2-1.7,2.2h-19.4c0,0,0,0,0,0h-0.9
			c-0.2,0-0.4,0.2-0.4,0.4v0.7c0,0.2,0.2,0.4,0.4,0.4h0.9c0,0,0,0,0,0H233c1.7,0,1.7,0.8,1.7,2.6c0,2.4,0,3.1-1.7,3.1h-20v0h-0.4
			c-0.2,0-0.4,0.2-0.4,0.4v0.6c0,0.2,0.2,0.4,0.4,0.4h0.9c0,0,0,0,0,0H233c1.7,0,1.7,0.9,1.7,2c0,3.5,0,3.9-1.8,3.9H212
			c-1.8,0-1.8-0.4-1.8-4.2c0-0.1,0-0.2,0-0.3v-12.3C210.2,116.5,210.2,116.2,210.2,115.8z"/>
		<path d="M241.8,153.3c0.9,1,1.5,1.5,2.4,1.5c1.4,0,2.2-1.6,2.2-2.8c0-4.1-16-9.1-17.4-9.1c-0.1,0-0.5,0.1-0.5,0.2
			c0,0.1,0.1,0.3,0.5,0.5C229.5,143.9,238,149.2,241.8,153.3z"/>
		<path d="M214.8,146.7c1.6-0.3,1.9-0.4,1.9-1c0-0.2-0.1-0.3-0.1-0.4c-0.3-0.6-4.8-3-5.1-2.9c-0.1,0.1-1.2,1.8-1.5,2.1
			c-3.9,4.6-9.6,7.7-12.1,9c-1.5,0.8-1.7,0.9-1.7,1c0,0.2,0.2,0.2,0.3,0.2c0.3,0,1.6-0.4,2-0.5c3.6-0.9,7.4-2.9,11.5-5
			C210.9,148.8,214.5,146.8,214.8,146.7z"/>
		<path d="M134.6,123.4c2.8,0,3.9-3.8,4.2-5.3c0.3-1.7-0.1-5-0.2-5.2c-0.1,0.2-0.3,0.6-0.5,1c-0.9,2-1.8,3.4-3.7,4.7
			c-1.5,1.1-2.3,1.6-2.3,2.7C132.2,122.7,133.4,123.4,134.6,123.4z"/>
		<path d="M141.9,116.9h0.5h0.4h31.1c0.5,0,1.3,0,1.3,0.7c0,0.2-0.1,1-1.1,2.4c-0.3,0.5-0.7,0.9-0.7,1.2c0,0.1,0.2,0.3,0.3,0.3
			c0.2,0,1-0.5,1.4-0.8c1.5-1,3.2-1.7,4.8-1.9c1.8-0.2,3-0.3,3-1.7c0-0.8-0.4-1.1-1.2-1.7c-2.8-2-3.1-2.2-3.6-2.2
			c-0.2,0-0.4,0-1.3,1.1c-1,1.2-1.9,1.2-3.3,1.2h-11.8c-1.3,0-1.6-0.3-1.6-1.8c0-0.9,0.2-1.6,0.4-2c0.2-0.2,1.2-1,1.2-1.3
			c0-0.9-5.4-1.5-5.6-1.5c-0.3,0-0.7,0.1-0.7,0.5c0,0.2,0.5,1.2,0.5,1.4c0.1,0.4,0.2,0.8,0.2,3c0,1.3-0.2,1.6-1.6,1.6h-12.1v0h-0.5
			c-0.2,0-0.4,0.2-0.4,0.4v0.7C141.6,116.7,141.7,116.9,141.9,116.9z"/>
		<path d="M153.7,129.7c-1.2-0.8-1.4-0.9-1.4-1.2c0-0.5,3.6-2.9,4-3.2c0.3-0.2,0.6-0.4,0.9-0.6c0.3-0.2,0.6-0.4,0.9-0.5
			c0.4-0.1,0.7-0.1,1.1-0.1c0.9,0,2.4,0,3.2,0c0.8,0,9.3,0,9.3,0c1.5,0,2,0,2-0.7c0-0.7-4.2-3.5-4.6-3.5c-0.5,0-2.2,2.1-2.7,2.5
			c-0.5,0.4-0.7,0.4-2.9,0.4h-13.4c-2.2,0-4.8-0.1-7-0.2c-0.4-0.1-2.2-0.2-2.6-0.2c-0.1,0-0.2,0.1-0.2,0.2c0,0.1,0.1,0.2,0.2,0.3
			l1.1,1.2c0.2,0.2,0.3,0.4,0.5,0.4c0.2,0,1-0.1,1.2-0.2c0.6-0.1,1.9-0.1,5.8-0.1c1.6,0,1.8,0,1.8,0.5c0,0.7-5.3,5.9-14.6,9.9
			c-0.8,0.4-2,0.9-2,1c0,0.1,0.1,0.2,0.2,0.2c0.1,0,8.1-1.6,13.7-4.9c0.3-0.2,2.2-1.3,2.4-1.3c0.8,0,1.5,1,1.5,1.5
			c0,1.6-6.8,6.7-12.4,10c-0.7,0.4-4.5,2.3-4.5,2.5c0,0.1,0.1,0.1,0.2,0.1c1,0,10.3-2.6,17.4-8.1c1.4-1.1,1.6-1.2,1.8-1.2
			c0.7,0,1.2,1.1,1.2,1.5c0,0.7-0.6,1.3-1.1,1.8c-6,6.2-10.9,8.7-17.9,12.3c-0.2,0.1-1.6,0.8-1.6,0.9c0,0.1,0.1,0.1,0.2,0.1
			c0.1,0,10.4-1.5,19.2-8.6c0.2-0.2,1.7-1.4,1.9-1.4c0.7,0,1.1,1.4,1.1,3.4c0,1.9-0.4,3.4-0.9,4.2c-1,1.7-1.8,1.7-2.9,1.7
			c-0.7,0-2.6-0.1-3.6-0.2c-0.5-0.1-2.6-0.3-3.1-0.3c-0.1,0-0.3,0-0.3,0.2c0,0.2,0.1,0.2,1.1,0.5c2.7,0.9,4.6,1.6,5,2.8
			c0.4,1.2,0.5,1.3,1.3,1.3c4.3,0,7.4-3.5,7.4-9.4C162,143.9,162,135.1,153.7,129.7z"/>
		<path d="M168.7,137.3c0-0.4,0.3-0.6,0.6-0.8c0.7-0.5,4.6-2.7,5.4-3.3c2.2-1.5,2.4-1.7,3.5-1.8c0.7-0.1,1.5-0.2,1.5-0.7
			c0-0.7-5-3.7-5.1-3.7c-0.3,0-0.5,1.4-0.6,1.7c-0.2,0.7-4.7,7.1-6.4,7.1c-1.2,0-4.7-5.5-6.1-8.8l0,0c0,0,0-0.1-0.1-0.3
			c-0.1-0.2-0.2-0.4-0.4-0.3l-0.6,0c-0.2,0-0.3,0.2-0.2,0.4l0.1,0.4l0,0c1.1,3.7,3.1,9.3,8.9,15.3c4.5,4.7,9.9,7.6,10.2,7.6
			c0.2,0,0.3-0.1,0.5-0.4c0.4-0.6,1.4-1.5,1.9-1.9c0.3-0.3,1.7-0.8,2.4-1c-0.3-0.3-1.2-0.6-1.8-0.8
			C173.6,143,168.7,137.7,168.7,137.3z"/>
		<path d="M5.4,173.6l-1.3-0.8c-0.5-0.3-1.3-0.9-1.3-1.8c0-0.6,0.2-1.6,1.7-1.6c1.4,0,1.8,0.9,2,1.7c0,0,0,0.1,0.1,0.1
			c0.1,0.1,0.2,0.2,0.4,0.1c0.1,0,0.3-0.1,0.4-0.2c0,0,0-0.1,0-0.1c0-0.7-0.1-1.7-0.3-2.1c0-0.1-0.1-0.2-0.2-0.2
			c-0.1,0-0.3,0-0.5-0.1c-0.4-0.1-1-0.2-1.6-0.2c-2.2,0-3.7,1.3-3.7,3.1c0,1.6,1.2,2.6,1.9,3.1l1.6,1c1.2,0.7,1.3,1.5,1.3,2.1
			c0,0.8-0.5,1.7-1.8,1.7c-1.6,0-2.3-1.3-2.6-2.3c0,0,0,0,0-0.1c-0.1-0.1-0.2-0.2-0.4-0.2c0,0,0,0,0,0c-0.1,0-0.3,0.1-0.5,0.2
			c0,0-0.1,0.1,0,0.2c0,0.8,0.3,2,0.5,2.5c0,0,0.1,0.1,0.1,0.1c0.4,0.2,1.3,0.7,2.7,0.7c2.3,0,3.8-1.4,3.8-3.4
			C7.7,175.6,6.9,174.5,5.4,173.6z"/>
		<path d="M24.4,179.2l-0.4-0.1c-0.7-0.1-0.8-0.1-0.8-1.8v-6c0-1.8,0-1.8,0.8-1.9l0.4,0c0,0,0.1,0,0.1,0c0.1-0.1,0.2-0.2,0.2-0.4
			c0-0.1,0-0.3-0.2-0.4c0,0-0.1,0-0.1,0c-0.8,0-1.4,0-2,0c-0.7,0-1.3,0-2-0.1c0,0-0.1,0-0.1,0c-0.2,0.1-0.2,0.4-0.2,0.4
			c0,0.2,0.1,0.4,0.2,0.4c0,0,0.1,0,0.1,0l0.3,0c0.7,0.1,0.8,0.1,0.8,1.9v1.9c0,0.1,0,0.2,0,0.2c-0.1,0-0.4,0-0.6,0H16
			c-0.2,0-0.5,0-0.6,0c0,0,0-0.2,0-0.3v-1.9c0-1.8,0-1.8,0.8-1.9l0.3,0c0,0,0.1,0,0.1,0c0.1-0.1,0.2-0.2,0.2-0.4
			c0-0.1,0-0.3-0.2-0.4c0,0-0.1,0-0.1,0c-0.8,0-1.3,0-1.9,0c-0.4,0-0.8,0-1.2,0c-0.3,0-0.6,0-0.9,0c0,0-0.1,0-0.1,0
			c-0.2,0.1-0.2,0.4-0.2,0.4c0,0.2,0.1,0.4,0.2,0.4c0,0,0.1,0,0.1,0l0.4,0c0.6,0,0.7,0.1,0.7,1.9v6c0,1.7,0,1.7-0.8,1.8l-0.3,0.1
			c-0.1,0-0.1,0-0.1,0.1c-0.1,0.1-0.2,0.3-0.1,0.5c0,0.2,0.1,0.3,0.2,0.4c0,0,0.1,0,0.1,0c0.2,0,0.4,0,0.6,0c0.4,0,0.8,0,1.3,0
			c0.7,0,1.2,0,2.1,0.1c0,0,0,0,0,0c0,0,0.1,0,0.1,0c0.2-0.1,0.2-0.4,0.2-0.4c0-0.2-0.1-0.4-0.2-0.4c0,0-0.1,0-0.1,0l-0.5-0.1
			c-0.7-0.1-0.8-0.1-0.8-1.8V175c0-0.1,0-0.2,0-0.2c0.1,0,0.4,0,0.6,0h4.8c0.2,0,0.5,0,0.6,0c0,0,0,0.2,0,0.3v2.4
			c0,1.7,0,1.7-0.8,1.8l-0.3,0.1c-0.1,0-0.1,0-0.1,0.1c-0.1,0.1-0.2,0.3-0.1,0.5c0,0.2,0.1,0.3,0.2,0.4c0,0,0.1,0,0.1,0
			c0.8,0,1.4,0,2,0c0.7,0,1.2,0,2,0.1c0,0,0.1,0,0.1,0c0.2-0.1,0.2-0.4,0.2-0.4c0-0.2-0.1-0.4-0.2-0.4
			C24.5,179.3,24.5,179.2,24.4,179.2z"/>
		<path d="M33.4,169.5l0.4,0c0,0,0.1,0,0.1,0c0.1-0.1,0.2-0.2,0.2-0.4c0-0.1,0-0.3-0.2-0.4c0,0-0.1,0-0.1,0c-0.8,0-1.4,0.1-2.1,0.1
			c-0.7,0-1.3,0-2.1-0.1c0,0-0.1,0-0.1,0c-0.2,0.1-0.2,0.4-0.2,0.4c0,0.2,0.1,0.4,0.2,0.4c0,0,0.1,0,0.1,0l0.4,0
			c0.7,0.1,0.8,0.1,0.8,1.9v6c0,1.8,0,1.8-0.8,1.9l-0.4,0.1c-0.1,0-0.1,0-0.2,0.1c-0.1,0.1-0.2,0.3-0.1,0.5c0,0.2,0.1,0.3,0.2,0.4
			c0,0,0.1,0,0.1,0c0.8,0,1.4-0.1,2.1-0.1c0.7,0,1.2,0,2.1,0.1c0,0,0,0,0,0c0,0,0.1,0,0.1,0c0.2-0.1,0.2-0.4,0.2-0.4
			c0-0.2-0.1-0.4-0.2-0.4c0,0-0.1,0-0.1,0l-0.4-0.1c-0.8-0.1-0.8-0.1-0.8-1.9v-6C32.6,169.5,32.7,169.5,33.4,169.5z"/>
		<path d="M44.3,168.3c-3.6,0-6.2,2.7-6.2,6.2c0,3,2.1,5.9,6.2,5.9c3.5,0,6.1-2.6,6.1-6.1C50.3,171.4,48.4,168.3,44.3,168.3z
			 M44.5,179.4c-3.4,0-4.3-3.4-4.3-5.4c0-3.4,2-4.6,3.7-4.6c3.1,0,4.2,3,4.2,5.5C48.1,178.2,46.2,179.4,44.5,179.4z"/>
		<path d="M62.2,169c-1-0.4-2.1-0.5-3.8-0.5c-1.3,0-2.7,0-4.2,0.1c0,0-0.1,0-0.1,0c-0.2,0.1-0.3,0.2-0.3,0.4c0,0.2,0.1,0.4,0.2,0.5
			c0,0,0.1,0,0.1,0l0.4,0.1c0.4,0.1,0.6,0.1,0.6,1.4v6.4c0,1.7,0,1.7-0.8,1.8l-0.4,0.1c-0.1,0-0.1,0-0.1,0.1
			c-0.1,0.1-0.2,0.3-0.1,0.5c0,0.2,0.1,0.3,0.2,0.4c0,0,0.1,0,0.1,0c0.8,0,1.4-0.1,2.1-0.1c0.2,0,0.6,0,1,0.1c0.5,0,1.2,0.1,1.8,0.1
			c1.1,0,2.6-0.1,3.9-0.8c2-1.1,3.1-3,3.1-5.2C65.8,171.8,64.4,169.8,62.2,169z M59.1,179.2c-1,0-1.6-0.2-1.9-0.6
			c-0.2-0.3-0.3-0.8-0.3-1.7v-6.2c0-0.6,0-1,0.1-1.1c0.1,0,0.5-0.2,1.5-0.2c4.7,0,5,3.6,5,4.7C63.6,177.5,62,179.2,59.1,179.2z"/>
		<path d="M79.7,179.2l-0.5-0.1c-0.5-0.1-0.7-0.1-1.2-1.6l-2.4-7c-0.2-0.7-0.5-1.3-0.6-2c-0.1-0.2-0.3-0.3-0.5-0.3
			c-0.1,0-0.1,0-0.2,0.1c-0.2,0.2-0.4,0.5-0.7,0.6c-0.1,0-0.2,0.2-0.2,0.3c0,0.2-0.1,0.5-0.3,1.1l-1.7,4.5c-0.5,1.3-0.9,2.2-1.1,2.9
			c-0.1,0.3-0.2,0.6-0.3,0.8c-0.2,0.5-0.5,0.6-0.8,0.7l-0.6,0.1c-0.1,0-0.1,0-0.1,0.1c-0.1,0.1-0.2,0.2-0.2,0.4
			c0,0.2,0.1,0.3,0.2,0.4c0,0,0.1,0,0.1,0c0,0,0,0,0,0l0.4,0c0.4,0,0.8,0,1.2,0l0.6,0c0.5,0,0.9,0,1.2,0c0,0,0.1,0,0.1,0
			c0.2-0.1,0.3-0.2,0.3-0.4c0-0.2-0.1-0.4-0.2-0.5c0,0-0.1,0-0.1,0l-0.6-0.1c-0.2,0-0.3,0-0.2-0.1c0-0.1,0-0.3,0.4-1.3l0.6-1.8
			c0.1-0.2,0.1-0.2,0.4-0.2h2.5c0.4,0,0.4,0,0.4,0.2c0,0,0,0,0,0l0.7,2.3c0.1,0.3,0.2,0.6,0.2,0.8c0,0-0.1,0.1-0.4,0.1l-0.5,0.1
			c0,0-0.1,0-0.1,0c-0.1,0.1-0.2,0.3-0.2,0.4c0,0.2,0.1,0.3,0.3,0.4c0,0,0.1,0,0.1,0l0.3,0c0.4,0,1,0,1.6,0c0.7,0,1.3,0,2,0
			c0.1,0,0.1,0,0.2-0.1c0.1-0.1,0.2-0.3,0.2-0.4c0-0.2-0.1-0.3-0.2-0.4C79.8,179.3,79.7,179.2,79.7,179.2z M74.9,174.6h-2.1
			c0,0-0.1,0-0.1,0c0,0,0,0,0-0.1l1.1-2.9c0.1-0.2,0.1-0.3,0.2-0.4c0.1,0.2,0.1,0.3,0.2,0.5l0.9,2.7c0,0.1,0,0.1,0.1,0.2
			C75,174.6,75,174.6,74.9,174.6z"/>
		<path d="M94.1,179.2l-0.5-0.1c-0.5-0.1-0.8-0.2-1.2-0.6c-1.1-1.2-2.2-2.4-3.5-3.9l-0.7-0.8c-0.1-0.1-0.2-0.3-0.3-0.3
			c0-0.1,0.2-0.2,0.3-0.3l1.5-1.4c1-0.9,1.9-1.7,2.3-1.9c0.5-0.3,1.1-0.4,1.5-0.4c0.1,0,0.1,0,0.2-0.1c0.1-0.1,0.2-0.3,0.1-0.4
			c0-0.2-0.1-0.3-0.2-0.4c0,0-0.1-0.1-0.2,0c-0.5,0-1.1,0-1.6,0c-0.6,0-1.3,0-1.8,0c-0.1,0-0.1,0-0.2,0c-0.1,0.1-0.2,0.2-0.2,0.4
			c0,0.2,0,0.3,0.2,0.4c0,0,0.1,0.1,0.1,0.1l0.5,0.1c0,0,0,0,0,0c0,0,0,0,0,0c-0.1,0.2-1,1-1.3,1.4l-1.8,1.8
			c-0.1,0.1-0.2,0.2-0.3,0.3c-0.2,0.2-0.4,0.4-0.5,0.5c-0.1,0.1-0.2,0.1-0.2,0.1c0-0.1,0-0.2,0-0.4v-1.9c0-1.8,0-1.8,0.8-1.9l0.3,0
			c0,0,0.1,0,0.1,0c0.1-0.1,0.2-0.2,0.2-0.4c0-0.1,0-0.3-0.2-0.4c0,0-0.1,0-0.1,0c-0.8,0-1.3,0-1.9,0c-0.8,0-1.3,0-2.1-0.1
			c0,0-0.1,0-0.1,0c-0.2,0.1-0.2,0.4-0.2,0.4c0,0.2,0.1,0.4,0.2,0.4c0,0,0.1,0,0.1,0l0.4,0c0.7,0.1,0.8,0.1,0.8,1.9v6
			c0,1.7,0,1.7-0.7,1.8l-0.3,0.1c-0.1,0-0.1,0-0.2,0.1c-0.1,0.1-0.1,0.4-0.1,0.5c0,0.2,0.1,0.3,0.2,0.3c0,0,0.1,0,0.1,0
			c0.7,0,1.3,0,1.9,0c0.7,0,1.2,0,2,0.1c0,0,0,0,0,0c0,0,0.1,0,0.1,0c0.2-0.1,0.2-0.4,0.2-0.4c0-0.2-0.1-0.4-0.2-0.4
			c0,0-0.1,0-0.1,0l-0.5-0.1c-0.7-0.1-0.7-0.1-0.7-1.8v-2.2c0-0.1,0-0.5,0-0.5c0.2,0,0.5,0.2,1.2,1.1l1.5,1.7
			c0.2,0.3,0.4,0.5,0.6,0.7c0.3,0.3,0.6,0.6,0.8,0.9l0,0.1c0,0,0,0,0.1,0.1c0,0-0.1,0-0.1,0l-0.4,0.1c-0.1,0-0.1,0-0.1,0.1
			c-0.1,0.1-0.1,0.4-0.1,0.5c0,0.2,0.1,0.3,0.3,0.3c0,0,0.1,0,0.1,0c0.8,0,1.4-0.1,2-0.1c0.8,0,1.4,0,1.9,0c0,0,0.1,0,0.1,0
			c0.1-0.1,0.2-0.2,0.3-0.4c0-0.2,0-0.4-0.2-0.5C94.2,179.3,94.1,179.2,94.1,179.2z"/>
		<path d="M107.8,179.2l-0.5-0.1c-0.5-0.1-0.7-0.1-1.2-1.6l-2.4-7c-0.2-0.7-0.5-1.3-0.6-2c-0.1-0.2-0.3-0.3-0.5-0.3
			c-0.1,0-0.1,0-0.2,0.1c-0.2,0.2-0.4,0.5-0.7,0.6c-0.1,0-0.2,0.2-0.2,0.3c0,0.2-0.1,0.5-0.3,1.1l-1.7,4.5c-0.5,1.3-0.9,2.2-1.1,2.9
			c-0.1,0.3-0.2,0.6-0.3,0.8c-0.2,0.5-0.5,0.6-0.8,0.7l-0.6,0.1c-0.1,0-0.1,0-0.1,0.1c-0.1,0.1-0.2,0.2-0.2,0.4
			c0,0.2,0.1,0.3,0.2,0.4c0,0,0.1,0,0.1,0c0,0,0,0,0,0l0.4,0c0.4,0,0.8,0,1.2,0l0.6,0c0.5,0,0.9,0,1.2,0c0,0,0.1,0,0.1,0
			c0.2-0.1,0.3-0.2,0.3-0.4c0-0.2-0.1-0.4-0.2-0.5c0,0-0.1,0-0.1,0l-0.6-0.1c-0.2,0-0.3,0-0.2-0.1c0-0.1,0-0.3,0.4-1.3l0.6-1.8
			c0.1-0.2,0.1-0.2,0.4-0.2h2.5c0.4,0,0.4,0,0.4,0.2c0,0,0,0,0,0l0.7,2.3c0.1,0.3,0.2,0.6,0.2,0.8c0,0-0.1,0.1-0.4,0.1l-0.5,0.1
			c0,0-0.1,0-0.1,0c-0.1,0.1-0.2,0.3-0.2,0.4c0,0.2,0.1,0.3,0.3,0.4c0,0,0.1,0,0.1,0l0.3,0c0.4,0,1,0,1.6,0c0.7,0,1.3,0,2,0
			c0.1,0,0.1,0,0.2-0.1c0.1-0.1,0.2-0.3,0.2-0.4c0-0.2-0.1-0.3-0.2-0.4C107.9,179.3,107.9,179.2,107.8,179.2z M103,174.6h-2.1
			c0,0-0.1,0-0.1,0c0,0,0,0,0-0.1l1.1-2.9c0.1-0.2,0.1-0.3,0.2-0.4c0.1,0.2,0.1,0.3,0.2,0.5l0.9,2.7c0,0.1,0,0.1,0.1,0.2
			C103.1,174.6,103.1,174.6,103,174.6z"/>
		<path d="M122.5,175.1c0,0-0.1,0-0.1,0c-0.6,0-1.1,0-1.8,0c-1,0-1.9,0-2.4,0c0,0-0.1,0-0.1,0c-0.1,0.1-0.2,0.2-0.3,0.4
			c0,0.2,0.1,0.4,0.2,0.5c0,0,0.1,0,0.1,0l0.7,0.1c0.9,0.1,0.9,0.1,0.9,1.4v0.7c0,0.6-0.1,0.8-0.1,0.8c-0.1,0.1-0.5,0.4-1.6,0.4
			c-3.5,0-4.8-2.8-4.8-5.5c0-2.2,1.2-4.6,4.4-4.6c1.8,0,2.8,0.7,3.2,2.2c0,0,0,0.1,0.1,0.1c0.1,0.1,0.4,0.2,0.5,0.1
			c0.2,0,0.3-0.1,0.3-0.3c0,0,0-0.1,0-0.1c-0.2-1.1-0.2-1.9-0.2-2.4c0-0.1,0-0.1-0.1-0.2c-0.1,0-0.1-0.1-0.2-0.1
			c-0.1,0-0.6-0.1-0.9-0.1l-0.1,0c-0.2,0-1.1-0.3-2.2-0.3c-2.4,0-4.2,0.7-5.5,2c-1,1.1-1.6,2.6-1.6,4.2c0,1.6,0.6,2.9,1.6,4
			c1.3,1.3,3.1,1.9,5.3,1.9c1,0,2.3-0.2,3.1-0.4c0.2-0.1,0.6-0.1,0.8-0.1c0.1,0,0.1,0,0.2-0.1c0.1-0.1,0.1-0.2,0.2-0.3
			c0-0.1,0-0.2-0.1-0.3c0,0-0.1,0-0.1-0.1c-0.2-0.1-0.2-0.4-0.2-0.9v-0.9c0-0.9,0.1-1.1,0.5-1.2l0.3,0c0.1,0,0.1,0,0.1-0.1
			c0.1-0.1,0.2-0.3,0.2-0.5C122.7,175.3,122.6,175.2,122.5,175.1z"/>
		<path d="M138.5,168.5c0,0-0.1,0-0.2,0c-0.6,0-1,0-1.7,0c-0.6,0-1.3,0-1.9,0c-0.1,0-0.1,0-0.2,0c-0.1,0.1-0.2,0.2-0.2,0.4
			c0,0.2,0,0.3,0.1,0.4c0,0.1,0.1,0.1,0.2,0.1l0.4,0c0.4,0,0.6,0.1,0.6,0.2c0.1,0.2,0.3,0.8,0.3,3.3v1.9c0,1.9-0.5,4.2-3.1,4.2
			c-2.2,0-3.1-1.3-3.1-4.2v-3.6c0-1.8,0.1-1.8,0.8-1.9l0.4,0c0,0,0.1,0,0.1,0c0.1-0.1,0.2-0.2,0.2-0.4c0-0.2-0.1-0.4-0.2-0.4
			c0,0-0.1,0-0.1,0c-0.8,0-1.4,0.1-2.1,0.1c-0.7,0-1.2,0-2.1-0.1c0,0-0.1,0-0.1,0c-0.1,0.1-0.2,0.2-0.2,0.4c0,0.2,0.1,0.3,0.2,0.4
			c0,0,0.1,0,0.1,0l0.4,0c0.7,0.1,0.8,0.1,0.8,1.9v4c0,2,0.4,3.4,1.4,4.2c0.8,0.7,1.9,1,3.3,1c1.4,0,2.6-0.5,3.4-1.3
			c0.8-0.9,1.2-2.3,1.2-4.2V173c0-0.8,0-2.8,0.2-3.3c0-0.1,0.3-0.2,0.6-0.3l0.4,0c0.1,0,0.1,0,0.2-0.1c0.1-0.1,0.1-0.3,0.1-0.5
			C138.7,168.7,138.6,168.6,138.5,168.5z"/>
		<path d="M158.8,177.2c-0.1-0.1-0.4-0.1-0.6,0c0,0-0.1,0.1-0.1,0.1c-0.3,0.8-0.7,1.4-1,1.5c-0.2,0.1-0.6,0.2-1.9,0.2
			c-1.3,0-1.5-0.2-1.6-0.3c-0.2-0.2-0.3-0.6-0.3-1.6v-5.8c0-1.8,0-1.8,0.8-1.9l0.4,0c0,0,0.1,0,0.1,0c0.1-0.1,0.2-0.2,0.2-0.4
			c0-0.1,0-0.3-0.2-0.4c0,0-0.1,0-0.1,0c-0.8,0-1.4,0.1-2.1,0.1c-0.7,0-1.2,0-2.2-0.1c0,0-0.1,0-0.1,0c-0.2,0.1-0.2,0.4-0.2,0.4
			c0,0.2,0.1,0.4,0.2,0.4c0,0,0.1,0,0.1,0l0.4,0c0.8,0.1,0.9,0.1,0.9,1.9v6c0,1.8,0,1.8-0.8,1.8l-0.5,0.1c-0.1,0-0.1,0-0.2,0.1
			c-0.1,0.1-0.2,0.3-0.1,0.5c0,0.2,0.1,0.3,0.2,0.4c0,0,0.1,0,0.1,0c0.9,0,1.5-0.1,2.2-0.1h1.5c1.8,0,3.4,0,4.2,0.1c0,0,0,0,0,0
			c0.1,0,0.2-0.1,0.2-0.1c0.2-0.5,0.7-2.2,0.7-2.5C159,177.5,159,177.3,158.8,177.2z"/>
		<path d="M167.4,169.5l0.4,0c0,0,0.1,0,0.1,0c0.1-0.1,0.2-0.2,0.2-0.4c0-0.1,0-0.3-0.2-0.4c0,0-0.1,0-0.1,0c-0.8,0-1.4,0.1-2.1,0.1
			c-0.7,0-1.3,0-2.1-0.1c0,0-0.1,0-0.1,0c-0.2,0.1-0.2,0.4-0.2,0.4c0,0.2,0.1,0.4,0.2,0.4c0,0,0.1,0,0.1,0l0.4,0
			c0.7,0.1,0.8,0.1,0.8,1.9v6c0,1.8,0,1.8-0.8,1.9l-0.4,0.1c-0.1,0-0.1,0-0.2,0.1c-0.1,0.1-0.2,0.3-0.1,0.5c0,0.2,0.1,0.3,0.2,0.4
			c0,0,0.1,0,0.1,0c0.8,0,1.4-0.1,2.1-0.1c0.7,0,1.2,0,2.1,0.1c0,0,0,0,0,0c0,0,0.1,0,0.1,0c0.2-0.1,0.2-0.4,0.2-0.4
			c0-0.2-0.1-0.4-0.2-0.4c0,0-0.1,0-0.1,0l-0.4-0.1c-0.8-0.1-0.8-0.1-0.8-1.9v-6C166.6,169.5,166.6,169.5,167.4,169.5z"/>
		<path d="M183.3,168.5c0,0-0.1,0-0.1,0c-0.6,0-1.1,0-1.6,0c-0.7,0-1.3,0-1.7,0c0,0-0.1,0-0.1,0c-0.1,0.1-0.2,0.2-0.2,0.4
			c0,0.2,0,0.3,0.2,0.4c0,0,0.1,0.1,0.1,0.1l0.3,0c0.3,0,0.5,0.1,0.5,0.1c0,0.1,0,0.2-0.1,0.5c-0.3,0.8-1.1,2.7-1.6,3.7
			c-0.1,0.3-0.3,0.6-0.4,1c-0.3,0.7-0.6,1.5-0.9,2.2c-0.7-1.7-1.4-3.5-2.1-5.2c-0.4-1.1-0.7-1.9-0.8-2.2c0.1,0,0.2-0.1,0.5-0.1
			l0.3,0c0,0,0.1,0,0.1-0.1c0.1-0.1,0.2-0.3,0.2-0.4c0-0.2-0.1-0.3-0.2-0.4c0,0-0.1,0-0.1,0c-0.7,0-1.3,0-2,0c-0.7,0-1.2,0-1.7,0
			c-0.1,0-0.1,0-0.2,0c-0.1,0.1-0.2,0.2-0.2,0.4c0,0.2,0,0.3,0.2,0.4c0,0,0.1,0.1,0.1,0.1l0.3,0c0.6,0.1,0.8,0.3,1.1,1.2l3,7.3
			c0.2,0.6,0.6,1.5,0.8,2.2c0,0.1,0.1,0.1,0.2,0.2c0.1,0,0.2,0.1,0.3,0.1c0.1,0,0.2,0,0.3-0.1c0,0,0.1-0.1,0.1-0.1
			c0.3-0.9,1.1-2.9,1.7-4.4l0.9-2.1c0.8-1.8,1.4-3.1,1.9-3.8c0.2-0.3,0.4-0.4,0.7-0.5l0.5,0c0.1,0,0.1,0,0.2-0.1
			c0.1-0.1,0.1-0.3,0.1-0.5C183.5,168.7,183.4,168.6,183.3,168.5z"/>
		<path d="M195,177.2c-0.2,0-0.3,0-0.5,0.1c0,0-0.1,0.1-0.1,0.1c-0.4,0.9-0.9,1.4-1.1,1.5c-0.3,0.2-0.8,0.2-2,0.2
			c-1.4,0-1.7-0.2-1.8-0.3c-0.2-0.2-0.2-0.8-0.2-1.6v-2.4c0-0.1,0-0.2,0-0.2c0.1,0,0.2,0,0.3,0h1c0.6,0,1,0,1.2,0.1
			c0.2,0,0.3,0.2,0.3,0.4l0.2,0.7c0,0,0,0.1,0.1,0.1c0.1,0.1,0.3,0.2,0.5,0.2c0.2,0,0.3-0.1,0.4-0.2c0,0,0-0.1,0-0.1
			c0-0.2,0-0.4,0-0.6c0-0.3,0-0.6,0-1c0-0.3,0-0.7,0-1c0-0.3,0-0.5,0-0.7c0,0,0-0.1,0-0.1c-0.1-0.1-0.2-0.2-0.4-0.2
			c-0.2,0-0.4,0-0.5,0.2c0,0,0,0.1-0.1,0.1l-0.1,0.7c-0.1,0.3-0.1,0.4-0.2,0.4c-0.1,0-0.3,0.1-1.3,0.1h-1c-0.1,0-0.3,0-0.3,0
			c0,0,0-0.1,0-0.2V170c0-0.2,0-0.4,0-0.4c0,0,0.2,0,0.3,0h1.2c0.7,0,1.2,0,1.6,0.1c0.7,0.2,0.8,0.6,1.1,1.3l0,0.1c0,0,0,0.1,0,0.1
			c0.1,0.1,0.2,0.2,0.4,0.2c0.2,0,0.3-0.1,0.4-0.2c0,0,0-0.1,0-0.2l0-0.2c-0.1-1-0.2-1.8-0.3-2.1c0-0.1-0.2-0.2-0.3-0.2
			c-0.2,0-1.3,0-2.2,0h-3.2c-0.6,0-1.2,0-2,0c0,0-0.1,0-0.1,0c-0.2,0.1-0.2,0.4-0.2,0.4c0,0.2,0.1,0.4,0.2,0.4c0,0,0.1,0,0.1,0
			l0.3,0c0.7,0.1,0.8,0.1,0.8,1.9v6c0,1.8-0.1,1.8-0.8,1.8l-0.6,0.1c-0.1,0-0.1,0-0.2,0.1c-0.1,0.1-0.2,0.3-0.1,0.5
			c0,0.2,0.1,0.3,0.2,0.4c0,0,0.1,0,0.1,0c1,0,1.6-0.1,2.3-0.1h1.5c1.5,0,3,0,4.5,0.1c0,0,0,0,0,0c0.1,0,0.2-0.1,0.2-0.1
			c0.2-0.5,0.7-1.8,0.8-2.4c0-0.1,0-0.1,0-0.2C195.3,177.3,195.2,177.2,195,177.2z"/>
		<path d="M210.1,179.5C210.1,179.5,210,179.5,210.1,179.5c-0.4,0-0.8-0.2-1.1-0.4c-1.1-1-2.1-2.4-3.3-4.4c0,0,0-0.1-0.1-0.1
			c0.7-0.3,2.1-1.2,2.1-3c0-1.1-0.5-2.1-1.5-2.6c-0.9-0.5-2-0.5-2.9-0.5c-1.5,0-2.7,0-3.8,0.1c0,0-0.1,0-0.1,0
			c-0.1,0.1-0.2,0.2-0.2,0.4c0,0.2,0.1,0.4,0.2,0.5c0,0,0.1,0,0.1,0l0.5,0.1c0.4,0.1,0.5,0.1,0.5,1.7v6c0,1.7,0,1.7-0.8,1.8
			l-0.4,0.1c-0.1,0-0.1,0-0.2,0.1c-0.1,0.1-0.1,0.4-0.1,0.5c0,0.2,0.1,0.3,0.2,0.3c0,0,0.1,0,0.1,0c0.8,0,1.4-0.1,2.1-0.1
			c0.6,0,1.2,0,2,0c0,0,0.1,0,0.1,0c0.1-0.1,0.2-0.2,0.2-0.4c0-0.2,0-0.4-0.2-0.5c0,0-0.1-0.1-0.1-0.1l-0.4-0.1
			c-0.8-0.1-0.8-0.1-0.8-1.8v-2.1c0,0,0-0.1,0-0.1c0.1,0,0.4,0,0.5,0c0.6,0,0.8,0.1,1,0.4c0.3,0.4,0.6,0.8,0.8,1.3
			c0.3,0.5,0.6,0.9,0.8,1.2c1.2,1.7,2.1,2.2,3.7,2.2c0.3,0,0.6,0,0.8-0.1c0,0,0.1,0,0.1,0c0.1-0.1,0.2-0.2,0.1-0.4
			C210.3,179.7,210.2,179.5,210.1,179.5z M204.9,173.7c-0.4,0.3-1.1,0.4-1.6,0.4c-0.6,0-0.8,0-0.9,0c0-0.1,0-0.2,0-0.3v-3.9
			c0,0,0-0.2,0-0.2c0.1-0.1,0.6-0.1,0.8-0.1c1.8,0,2.4,1.2,2.4,2.3C205.7,173,205.3,173.5,204.9,173.7z"/>
		<path d="M217.4,169.5l0.4,0c0,0,0.1,0,0.1,0c0.1-0.1,0.2-0.2,0.2-0.4c0-0.1,0-0.3-0.2-0.4c0,0-0.1,0-0.1,0c-0.8,0-1.4,0.1-2.1,0.1
			c-0.7,0-1.3,0-2.1-0.1c0,0-0.1,0-0.1,0c-0.2,0.1-0.2,0.4-0.2,0.4c0,0.2,0.1,0.4,0.2,0.4c0,0,0.1,0,0.1,0l0.4,0
			c0.7,0.1,0.8,0.1,0.8,1.9v6c0,1.8,0,1.8-0.8,1.9l-0.4,0.1c-0.1,0-0.1,0-0.2,0.1c-0.1,0.1-0.2,0.3-0.1,0.5c0,0.2,0.1,0.3,0.2,0.4
			c0,0,0.1,0,0.1,0c0.8,0,1.4-0.1,2.1-0.1c0.7,0,1.2,0,2.1,0.1c0,0,0,0,0,0c0,0,0.1,0,0.1,0c0.2-0.1,0.2-0.4,0.2-0.4
			c0-0.2-0.1-0.4-0.2-0.4c0,0-0.1,0-0.1,0l-0.4-0.1c-0.8-0.1-0.8-0.1-0.8-1.9v-6C216.6,169.5,216.7,169.5,217.4,169.5z"/>
		<path d="M228.2,168.3c-3.6,0-6.2,2.7-6.2,6.2c0,3,2.1,5.9,6.2,5.9c3.5,0,6.1-2.6,6.1-6.1C234.3,171.4,232.4,168.3,228.2,168.3z
			 M228.5,179.4c-3.4,0-4.3-3.4-4.3-5.4c0-3.4,2-4.6,3.7-4.6c3.1,0,4.2,3,4.2,5.5C232.1,178.2,230.2,179.4,228.5,179.4z"/>
		<path d="M248.6,179.5C248.6,179.5,248.6,179.5,248.6,179.5c-0.4,0-0.8-0.2-1.1-0.4c-1.1-1-2.1-2.4-3.3-4.4c0,0,0-0.1-0.1-0.1
			c0.7-0.3,2.1-1.2,2.1-3c0-1.1-0.5-2.1-1.5-2.6c-0.9-0.5-2-0.5-2.9-0.5c-1.5,0-2.7,0-3.8,0.1c0,0-0.1,0-0.1,0
			c-0.1,0.1-0.2,0.2-0.2,0.4c0,0.2,0.1,0.4,0.2,0.5c0,0,0.1,0,0.1,0l0.5,0.1c0.4,0.1,0.5,0.1,0.5,1.7v6c0,1.7,0,1.7-0.8,1.8
			l-0.4,0.1c-0.1,0-0.1,0-0.2,0.1c-0.1,0.1-0.1,0.4-0.1,0.5c0,0.2,0.1,0.3,0.2,0.3c0,0,0.1,0,0.1,0c0.8,0,1.4-0.1,2.1-0.1
			c0.6,0,1.2,0,2,0c0,0,0.1,0,0.1,0c0.1-0.1,0.2-0.2,0.2-0.4c0-0.2,0-0.4-0.2-0.5c0,0-0.1-0.1-0.1-0.1l-0.4-0.1
			c-0.8-0.1-0.8-0.1-0.8-1.8v-2.1c0,0,0-0.1,0-0.1c0.1,0,0.4,0,0.5,0c0.6,0,0.8,0.1,1,0.4c0.3,0.4,0.6,0.8,0.8,1.3
			c0.3,0.5,0.6,0.9,0.8,1.2c1.2,1.7,2.1,2.2,3.7,2.2c0.3,0,0.6,0,0.8-0.1c0,0,0.1,0,0.1,0c0.1-0.1,0.2-0.2,0.1-0.4
			C248.8,179.7,248.7,179.5,248.6,179.5z M243.5,173.7c-0.4,0.3-1.1,0.4-1.6,0.4c-0.6,0-0.8,0-0.9,0c0-0.1,0-0.2,0-0.3v-3.9
			c0,0,0-0.2,0-0.2c0.1-0.1,0.6-0.1,0.8-0.1c1.8,0,2.4,1.2,2.4,2.3C244.2,173,243.8,173.5,243.5,173.7z"/>
	</g>
	<polygon class="st0" points="105.8,81.5 94.6,47 124,25.6 153.4,47 142.1,81.5 161,81.5 175.2,37.8 124,0.6 72.7,37.8 86.9,81.5 	
		"/>
</g>
</svg>
