<?xml version="1.0" encoding="utf-8"?>
<!-- Generator: Adobe Illustrator 23.0.2, SVG Export Plug-In . SVG Version: 6.00 Build 0)  -->
<svg version="1.1" id="arr" xmlns="http://www.w3.org/2000/svg" xmlns:xlink="http://www.w3.org/1999/xlink" x="0px" y="0px"
	 viewBox="0 0 52 26" style="enable-background:new 0 0 52 26;" xml:space="preserve">
<style type="text/css">
	.st0{fill:#FFFFFF;}
	.st1{fill:#006D80;}
	.st2{fill:none;stroke:#006D80;stroke-width:2.2677;stroke-linecap:round;stroke-linejoin:round;stroke-miterlimit:10;}
</style>
<path class="st1" d="M50.9,12.5L25,0.2c-0.4-0.2-0.8-0.1-1.1,0.1c-0.3,0.2-0.5,0.6-0.5,1v9.3H1.1c-0.6,0-1.1,0.5-1.1,1.1
	s0.5,1.1,1.1,1.1h23.4c0.6,0,1.1-0.5,1.1-1.1V3.1l22,10.4l-22,9.5v-4.5c0-0.6-0.5-1.1-1.1-1.1s-1.1,0.5-1.1,1.1v6.2
	c0,0.4,0.2,0.7,0.5,0.9c0.2,0.1,0.4,0.2,0.6,0.2c0.2,0,0.3,0,0.5-0.1l25.8-11.2c0.4-0.2,0.7-0.6,0.7-1
	C51.6,13.1,51.4,12.7,50.9,12.5z"/>
</svg>
